<?xml version="1.0" encoding="UTF-8" standalone="no"?>
<!DOCTYPE svg PUBLIC "-//W3C//DTD SVG 1.1//EN"
 "http://www.w3.org/Graphics/SVG/1.1/DTD/svg11.dtd">
<!-- Generated by graphviz version 2.40.1 (20161225.0304)
 -->
<!-- Title: g Pages: 1 -->
<svg width="2000pt" height="1111pt"
 viewBox="0.00 0.00 2000.00 1111.00" xmlns="http://www.w3.org/2000/svg" xmlns:xlink="http://www.w3.org/1999/xlink">
<g id="graph0" class="graph" transform="scale(1 1) rotate(0) translate(4 1107)">
<title>g</title>
<polygon fill="#ffffff" stroke="transparent" points="-4,4 -4,-1107 1996,-1107 1996,4 -4,4"/>
<!-- Company -->
<g id="node1" class="node">
<title>Company</title>
<polygon fill="none" stroke="#000000" points="0,-155.5 0,-445.5 350,-445.5 350,-155.5 0,-155.5"/>
<text text-anchor="middle" x="175" y="-428.7" font-family="Times,serif" font-size="16.00" fill="#000000">Company信息</text>
<polyline fill="none" stroke="#000000" points="0,-419.5 350,-419.5 "/>
<text text-anchor="start" x="8" y="-402.7" font-family="Times,serif" font-size="16.00" fill="#000000">company_id(string) </text>
<text text-anchor="end" x="342" y="-384.7" font-family="Times,serif" font-size="16.00" fill="#000000"> 接入方APP对应的CompanyId，由DragonEx确定</text>
<polyline fill="none" stroke="#000000" points="0,-375.5 350,-375.5 "/>
<text text-anchor="start" x="8" y="-358.7" font-family="Times,serif" font-size="16.00" fill="#000000">name(string) </text>
<text text-anchor="end" x="342" y="-340.7" font-family="Times,serif" font-size="16.00" fill="#000000"> 接入方公司名称，可配置多语言版本</text>
<polyline fill="none" stroke="#000000" points="0,-331.5 350,-331.5 "/>
<text text-anchor="start" x="8" y="-314.7" font-family="Times,serif" font-size="16.00" fill="#000000">website(string) </text>
<text text-anchor="end" x="342" y="-296.7" font-family="Times,serif" font-size="16.00" fill="#000000"> 接入方公司主页地址</text>
<polyline fill="none" stroke="#000000" points="0,-287.5 350,-287.5 "/>
<text text-anchor="start" x="8" y="-270.7" font-family="Times,serif" font-size="16.00" fill="#000000">addr(string) </text>
<text text-anchor="end" x="342" y="-252.7" font-family="Times,serif" font-size="16.00" fill="#000000"> 接入方公司地址，可配置多语言版本</text>
<polyline fill="none" stroke="#000000" points="0,-243.5 350,-243.5 "/>
<text text-anchor="start" x="8" y="-226.7" font-family="Times,serif" font-size="16.00" fill="#000000">logo(string) </text>
<text text-anchor="end" x="342" y="-208.7" font-family="Times,serif" font-size="16.00" fill="#000000"> 接入方公司LOGO</text>
<polyline fill="none" stroke="#000000" points="0,-199.5 350,-199.5 "/>
<text text-anchor="start" x="8" y="-182.7" font-family="Times,serif" font-size="16.00" fill="#000000">desc(string) </text>
<text text-anchor="end" x="342" y="-164.7" font-family="Times,serif" font-size="16.00" fill="#000000"> 接入方公司描述说明，可配置多语言版本</text>
</g>
<!-- App -->
<g id="node2" class="node">
<title>App</title>
<polygon fill="none" stroke="#000000" points="396.5,-178.5 396.5,-776.5 875.5,-776.5 875.5,-178.5 396.5,-178.5"/>
<text text-anchor="middle" x="636" y="-759.7" font-family="Times,serif" font-size="16.00" fill="#000000">App信息</text>
<polyline fill="none" stroke="#000000" points="396.5,-750.5 875.5,-750.5 "/>
<text text-anchor="start" x="404.5" y="-733.7" font-family="Times,serif" font-size="16.00" fill="#000000">app_id(string) </text>
<text text-anchor="end" x="867.5" y="-715.7" font-family="Times,serif" font-size="16.00" fill="#000000"> 接入方AppId，由DragonEx确定</text>
<polyline fill="none" stroke="#000000" points="396.5,-706.5 875.5,-706.5 "/>
<text text-anchor="start" x="404.5" y="-689.7" font-family="Times,serif" font-size="16.00" fill="#000000">(string) company_id </text>
<text text-anchor="end" x="867.5" y="-671.7" font-family="Times,serif" font-size="16.00" fill="#000000"> 接入方APP对应的CompanyId</text>
<polyline fill="none" stroke="#000000" points="396.5,-662.5 875.5,-662.5 "/>
<text text-anchor="start" x="404.5" y="-645.7" font-family="Times,serif" font-size="16.00" fill="#000000">admin_uid(int) </text>
<text text-anchor="end" x="867.5" y="-627.7" font-family="Times,serif" font-size="16.00" fill="#000000"> APP的管理员账户ID</text>
<polyline fill="none" stroke="#000000" points="396.5,-618.5 875.5,-618.5 "/>
<text text-anchor="start" x="404.5" y="-601.7" font-family="Times,serif" font-size="16.00" fill="#000000">name(string) </text>
<text text-anchor="end" x="867.5" y="-583.7" font-family="Times,serif" font-size="16.00" fill="#000000"> APP名称，可配置多语言版本</text>
<polyline fill="none" stroke="#000000" points="396.5,-574.5 875.5,-574.5 "/>
<text text-anchor="start" x="404.5" y="-557.7" font-family="Times,serif" font-size="16.00" fill="#000000">poster(string) </text>
<text text-anchor="end" x="867.5" y="-539.7" font-family="Times,serif" font-size="16.00" fill="#000000"> 宣传海报地址，可配置多语言版本</text>
<polyline fill="none" stroke="#000000" points="396.5,-530.5 875.5,-530.5 "/>
<text text-anchor="start" x="404.5" y="-513.7" font-family="Times,serif" font-size="16.00" fill="#000000">website(string) </text>
<text text-anchor="end" x="867.5" y="-495.7" font-family="Times,serif" font-size="16.00" fill="#000000"> APP主页地址</text>
<polyline fill="none" stroke="#000000" points="396.5,-486.5 875.5,-486.5 "/>
<text text-anchor="start" x="404.5" y="-469.7" font-family="Times,serif" font-size="16.00" fill="#000000">logo(string) </text>
<text text-anchor="end" x="867.5" y="-451.7" font-family="Times,serif" font-size="16.00" fill="#000000"> APP Logo</text>
<polyline fill="none" stroke="#000000" points="396.5,-442.5 875.5,-442.5 "/>
<text text-anchor="start" x="404.5" y="-425.7" font-family="Times,serif" font-size="16.00" fill="#000000">scopes(int[]) </text>
<text text-anchor="end" x="867.5" y="-407.7" font-family="Times,serif" font-size="16.00" fill="#000000"> 该APP拥有的权限列表</text>
<polyline fill="none" stroke="#000000" points="396.5,-398.5 875.5,-398.5 "/>
<text text-anchor="start" x="404.5" y="-381.7" font-family="Times,serif" font-size="16.00" fill="#000000">coin_codes(string[]) </text>
<text text-anchor="end" x="867.5" y="-363.7" font-family="Times,serif" font-size="16.00" fill="#000000"> 该APP可支付的币种列表</text>
<polyline fill="none" stroke="#000000" points="396.5,-354.5 875.5,-354.5 "/>
<text text-anchor="start" x="404.5" y="-337.7" font-family="Times,serif" font-size="16.00" fill="#000000">cut_rate(string) </text>
<text text-anchor="end" x="867.5" y="-319.7" font-family="Times,serif" font-size="16.00" fill="#000000"> 该APP支付时收取的佣金比例</text>
<polyline fill="none" stroke="#000000" points="396.5,-310.5 875.5,-310.5 "/>
<text text-anchor="start" x="404.5" y="-293.7" font-family="Times,serif" font-size="16.00" fill="#000000">entry(string) </text>
<text text-anchor="end" x="867.5" y="-275.7" font-family="Times,serif" font-size="16.00" fill="#000000"> 从DragonEx开放平台进入该APP的入口地址，可由APP管理员修改</text>
<polyline fill="none" stroke="#000000" points="396.5,-266.5 875.5,-266.5 "/>
<text text-anchor="start" x="404.5" y="-249.7" font-family="Times,serif" font-size="16.00" fill="#000000">callback(string) </text>
<text text-anchor="end" x="867.5" y="-231.7" font-family="Times,serif" font-size="16.00" fill="#000000"> 该APP的支付回调地址，可由APP管理员修改</text>
<polyline fill="none" stroke="#000000" points="396.5,-222.5 875.5,-222.5 "/>
<text text-anchor="start" x="404.5" y="-205.7" font-family="Times,serif" font-size="16.00" fill="#000000">resp_check_key(string) </text>
<text text-anchor="end" x="867.5" y="-187.7" font-family="Times,serif" font-size="16.00" fill="#000000"> 该APP服务端校验DragonEx HTTP响应的key，可由APP管理员修改</text>
</g>
<!-- Company&#45;&gt;App -->
<g id="edge1" class="edge">
<title>Company:company_id&#45;&gt;App:company_id</title>
<path fill="none" stroke="#000000" d="M350,-397.5C475.5251,-397.5 278.5711,-668.4743 385.8307,-683.8225"/>
<polygon fill="#000000" stroke="#000000" points="385.7894,-687.3274 396,-684.5 386.2548,-680.3429 385.7894,-687.3274"/>
</g>
<!-- UnionId -->
<g id="node6" class="node">
<title>UnionId</title>
<polygon fill="none" stroke="#000000" points="386,-45.5 386,-159.5 886,-159.5 886,-45.5 386,-45.5"/>
<text text-anchor="middle" x="636" y="-142.7" font-family="Times,serif" font-size="16.00" fill="#000000">UnionId信息</text>
<polyline fill="none" stroke="#000000" points="386,-133.5 886,-133.5 "/>
<text text-anchor="start" x="394" y="-116.7" font-family="Times,serif" font-size="16.00" fill="#000000">company_id(string) </text>
<text text-anchor="end" x="878" y="-98.7" font-family="Times,serif" font-size="16.00" fill="#000000"> 该UnionId所属的CompanyId</text>
<polyline fill="none" stroke="#000000" points="386,-89.5 886,-89.5 "/>
<text text-anchor="start" x="394" y="-72.7" font-family="Times,serif" font-size="16.00" fill="#000000">union_id(string) </text>
<text text-anchor="end" x="878" y="-54.7" font-family="Times,serif" font-size="16.00" fill="#000000"> UnionId，该CompanyId下所有App的同一个用户，其UnionId是一样的</text>
</g>
<!-- Company&#45;&gt;UnionId -->
<g id="edge2" class="edge">
<title>Company:company_id&#45;&gt;UnionId:company_id</title>
<path fill="none" stroke="#000000" d="M350,-397.5C410.3037,-397.5 332.2014,-144.0337 376.2856,-114.3306"/>
<polygon fill="#000000" stroke="#000000" points="377.3784,-117.6579 386,-111.5 375.4201,-110.9373 377.3784,-117.6579"/>
</g>
<!-- Scopes1 -->
<g id="node3" class="node">
<title>Scopes1</title>
<polygon fill="none" stroke="#000000" points="1015.5,-.5 1015.5,-422.5 1193.5,-422.5 1193.5,-.5 1015.5,-.5"/>
<text text-anchor="middle" x="1104.5" y="-405.7" font-family="Times,serif" font-size="16.00" fill="#000000">Scope</text>
<polyline fill="none" stroke="#000000" points="1015.5,-396.5 1193.5,-396.5 "/>
<text text-anchor="start" x="1023.5" y="-379.7" font-family="Times,serif" font-size="16.00" fill="#000000">1 </text>
<text text-anchor="end" x="1185.5" y="-361.7" font-family="Times,serif" font-size="16.00" fill="#000000"> 登录</text>
<polyline fill="none" stroke="#000000" points="1015.5,-352.5 1193.5,-352.5 "/>
<text text-anchor="start" x="1023.5" y="-335.7" font-family="Times,serif" font-size="16.00" fill="#000000">2 </text>
<text text-anchor="end" x="1185.5" y="-317.7" font-family="Times,serif" font-size="16.00" fill="#000000"> 暂不开放</text>
<polyline fill="none" stroke="#000000" points="1015.5,-308.5 1193.5,-308.5 "/>
<text text-anchor="start" x="1023.5" y="-291.7" font-family="Times,serif" font-size="16.00" fill="#000000">3 </text>
<text text-anchor="end" x="1185.5" y="-273.7" font-family="Times,serif" font-size="16.00" fill="#000000"> 提现</text>
<polyline fill="none" stroke="#000000" points="1015.5,-264.5 1193.5,-264.5 "/>
<text text-anchor="start" x="1023.5" y="-247.7" font-family="Times,serif" font-size="16.00" fill="#000000">4 </text>
<text text-anchor="end" x="1185.5" y="-229.7" font-family="Times,serif" font-size="16.00" fill="#000000"> 交易</text>
<polyline fill="none" stroke="#000000" points="1015.5,-220.5 1193.5,-220.5 "/>
<text text-anchor="start" x="1023.5" y="-203.7" font-family="Times,serif" font-size="16.00" fill="#000000">5 </text>
<text text-anchor="end" x="1185.5" y="-185.7" font-family="Times,serif" font-size="16.00" fill="#000000"> 支付，从用户向接入方</text>
<polyline fill="none" stroke="#000000" points="1015.5,-176.5 1193.5,-176.5 "/>
<text text-anchor="start" x="1023.5" y="-159.7" font-family="Times,serif" font-size="16.00" fill="#000000">6 </text>
<text text-anchor="end" x="1185.5" y="-141.7" font-family="Times,serif" font-size="16.00" fill="#000000"> 支付，从接入方向用户</text>
<polyline fill="none" stroke="#000000" points="1015.5,-132.5 1193.5,-132.5 "/>
<text text-anchor="start" x="1023.5" y="-115.7" font-family="Times,serif" font-size="16.00" fill="#000000">7 </text>
<text text-anchor="end" x="1185.5" y="-97.7" font-family="Times,serif" font-size="16.00" fill="#000000"> 获取用户资产信息</text>
<polyline fill="none" stroke="#000000" points="1015.5,-88.5 1193.5,-88.5 "/>
<text text-anchor="start" x="1023.5" y="-71.7" font-family="Times,serif" font-size="16.00" fill="#000000">8 </text>
<text text-anchor="end" x="1185.5" y="-53.7" font-family="Times,serif" font-size="16.00" fill="#000000"> 暂不开放</text>
<polyline fill="none" stroke="#000000" points="1015.5,-44.5 1193.5,-44.5 "/>
<text text-anchor="start" x="1023.5" y="-27.7" font-family="Times,serif" font-size="16.00" fill="#000000">9 </text>
<text text-anchor="end" x="1185.5" y="-9.7" font-family="Times,serif" font-size="16.00" fill="#000000"> 暂不开放</text>
</g>
<!-- App&#45;&gt;Scopes1 -->
<g id="edge6" class="edge">
<title>App:scopes&#45;&gt;Scopes1:scopes</title>
<path fill="none" stroke="#000000" d="M876,-420.5C934.6698,-420.5 951.4443,-410.7108 1005.3681,-409.6019"/>
<polygon fill="#000000" stroke="#000000" points="1005.5357,-413.1005 1015.5,-409.5 1005.4653,-406.1008 1005.5357,-413.1005"/>
</g>
<!-- AppKey -->
<g id="node5" class="node">
<title>AppKey</title>
<polygon fill="none" stroke="#000000" points="1027,-441.5 1027,-643.5 1182,-643.5 1182,-441.5 1027,-441.5"/>
<text text-anchor="middle" x="1104.5" y="-626.7" font-family="Times,serif" font-size="16.00" fill="#000000">AppKey信息</text>
<polyline fill="none" stroke="#000000" points="1027,-617.5 1182,-617.5 "/>
<text text-anchor="start" x="1035" y="-600.7" font-family="Times,serif" font-size="16.00" fill="#000000">app_id(string) </text>
<text text-anchor="end" x="1174" y="-582.7" font-family="Times,serif" font-size="16.00" fill="#000000"> 该Key所属的AppId</text>
<polyline fill="none" stroke="#000000" points="1027,-573.5 1182,-573.5 "/>
<text text-anchor="start" x="1035" y="-556.7" font-family="Times,serif" font-size="16.00" fill="#000000">access_key(string) </text>
<text text-anchor="end" x="1174" y="-538.7" font-family="Times,serif" font-size="16.00" fill="#000000"> AccessKey</text>
<polyline fill="none" stroke="#000000" points="1027,-529.5 1182,-529.5 "/>
<text text-anchor="start" x="1035" y="-512.7" font-family="Times,serif" font-size="16.00" fill="#000000">secret_key(string) </text>
<text text-anchor="end" x="1174" y="-494.7" font-family="Times,serif" font-size="16.00" fill="#000000"> SecretKey</text>
<polyline fill="none" stroke="#000000" points="1027,-485.5 1182,-485.5 "/>
<text text-anchor="start" x="1035" y="-468.7" font-family="Times,serif" font-size="16.00" fill="#000000">ips(string[]) </text>
<text text-anchor="end" x="1174" y="-450.7" font-family="Times,serif" font-size="16.00" fill="#000000"> 该Key绑定的IP列表</text>
</g>
<!-- App&#45;&gt;AppKey -->
<g id="edge4" class="edge">
<title>App:app_id&#45;&gt;AppKey:app_id</title>
<path fill="none" stroke="#000000" d="M876,-728.5C915.1035,-728.5 893.7552,-680.5429 922,-653.5 957.8201,-619.2042 971.5413,-598.3924 1016.4292,-595.7796"/>
<polygon fill="#000000" stroke="#000000" points="1016.601,-599.2763 1026.5,-595.5 1016.4067,-592.279 1016.601,-599.2763"/>
</g>
<!-- OpenId -->
<g id="node7" class="node">
<title>OpenId</title>
<polygon fill="none" stroke="#000000" points="922,-662.5 922,-776.5 1287,-776.5 1287,-662.5 922,-662.5"/>
<text text-anchor="middle" x="1104.5" y="-759.7" font-family="Times,serif" font-size="16.00" fill="#000000">OpenId信息</text>
<polyline fill="none" stroke="#000000" points="922,-750.5 1287,-750.5 "/>
<text text-anchor="start" x="930" y="-733.7" font-family="Times,serif" font-size="16.00" fill="#000000">app_id(string) </text>
<text text-anchor="end" x="1279" y="-715.7" font-family="Times,serif" font-size="16.00" fill="#000000"> 该OpenId所属的AppId</text>
<polyline fill="none" stroke="#000000" points="922,-706.5 1287,-706.5 "/>
<text text-anchor="start" x="930" y="-689.7" font-family="Times,serif" font-size="16.00" fill="#000000">open_id(string) </text>
<text text-anchor="end" x="1279" y="-671.7" font-family="Times,serif" font-size="16.00" fill="#000000"> OpenId，不同App下同一个用户的OpenId没有关系</text>
</g>
<!-- App&#45;&gt;OpenId -->
<g id="edge3" class="edge">
<title>App:app_id&#45;&gt;OpenId:app_id</title>
<path fill="none" stroke="#000000" d="M876,-728.5C892.6111,-728.5 899.0998,-728.5 911.915,-728.5"/>
<polygon fill="#000000" stroke="#000000" points="912,-732.0001 922,-728.5 912,-725.0001 912,-732.0001"/>
</g>
<!-- AccessToken -->
<g id="node8" class="node">
<title>AccessToken</title>
<polygon fill="none" stroke="#000000" points="1419,-812.5 1419,-1102.5 1682,-1102.5 1682,-812.5 1419,-812.5"/>
<text text-anchor="middle" x="1550.5" y="-1085.7" font-family="Times,serif" font-size="16.00" fill="#000000">AccessToken信息</text>
<polyline fill="none" stroke="#000000" points="1419,-1076.5 1682,-1076.5 "/>
<text text-anchor="start" x="1427" y="-1059.7" font-family="Times,serif" font-size="16.00" fill="#000000">app_id(string) </text>
<text text-anchor="end" x="1674" y="-1041.7" font-family="Times,serif" font-size="16.00" fill="#000000"> 该AccessToken所属的AppId</text>
<polyline fill="none" stroke="#000000" points="1419,-1032.5 1682,-1032.5 "/>
<text text-anchor="start" x="1427" y="-1015.7" font-family="Times,serif" font-size="16.00" fill="#000000">open_id(string) </text>
<text text-anchor="middle" x="1550.5" y="-997.7" font-family="Times,serif" font-size="16.00" fill="#000000"> 此次登录的OpenId</text>
<polyline fill="none" stroke="#000000" points="1419,-988.5 1682,-988.5 "/>
<text text-anchor="start" x="1427" y="-971.7" font-family="Times,serif" font-size="16.00" fill="#000000">access_token(string) </text>
<text text-anchor="end" x="1674" y="-953.7" font-family="Times,serif" font-size="16.00" fill="#000000"> 授权Token，有效期较短</text>
<polyline fill="none" stroke="#000000" points="1419,-944.5 1682,-944.5 "/>
<text text-anchor="start" x="1427" y="-927.7" font-family="Times,serif" font-size="16.00" fill="#000000">refresh_token(string) </text>
<text text-anchor="end" x="1674" y="-909.7" font-family="Times,serif" font-size="16.00" fill="#000000"> 用于刷新AccessToken，有效期较长</text>
<polyline fill="none" stroke="#000000" points="1419,-900.5 1682,-900.5 "/>
<text text-anchor="start" x="1427" y="-883.7" font-family="Times,serif" font-size="16.00" fill="#000000">scopes(int[]) </text>
<text text-anchor="end" x="1674" y="-865.7" font-family="Times,serif" font-size="16.00" fill="#000000"> 此次登录授予的权限</text>
<polyline fill="none" stroke="#000000" points="1419,-856.5 1682,-856.5 "/>
<text text-anchor="start" x="1427" y="-839.7" font-family="Times,serif" font-size="16.00" fill="#000000">device(string) </text>
<text text-anchor="end" x="1674" y="-821.7" font-family="Times,serif" font-size="16.00" fill="#000000"> 登录设备</text>
</g>
<!-- App&#45;&gt;AccessToken -->
<g id="edge5" class="edge">
<title>App:app_id&#45;&gt;AccessToken:app_id</title>
<path fill="none" stroke="#000000" d="M876,-728.5C925.7301,-728.5 886.8381,-795.3329 922,-830.5 1090.7435,-999.2684 1174.0399,-1052.9807 1408.311,-1054.468"/>
<polygon fill="#000000" stroke="#000000" points="1408.489,-1057.9685 1418.5,-1054.5 1408.5111,-1050.9686 1408.489,-1057.9685"/>
</g>
<!-- TransLog -->
<g id="node9" class="node">
<title>TransLog</title>
<polygon fill="none" stroke="#000000" points="1323,-239.5 1323,-793.5 1778,-793.5 1778,-239.5 1323,-239.5"/>
<text text-anchor="middle" x="1550.5" y="-776.7" font-family="Times,serif" font-size="16.00" fill="#000000">支付转账记录</text>
<polyline fill="none" stroke="#000000" points="1323,-767.5 1778,-767.5 "/>
<text text-anchor="start" x="1331" y="-750.7" font-family="Times,serif" font-size="16.00" fill="#000000">trade_no(string) </text>
<text text-anchor="end" x="1770" y="-732.7" font-family="Times,serif" font-size="16.00" fill="#000000"> 转账流水号，由接入方在申请支付时传入</text>
<polyline fill="none" stroke="#000000" points="1323,-723.5 1778,-723.5 "/>
<text text-anchor="start" x="1331" y="-706.7" font-family="Times,serif" font-size="16.00" fill="#000000">app_id(string) </text>
<text text-anchor="end" x="1770" y="-688.7" font-family="Times,serif" font-size="16.00" fill="#000000"> AppId</text>
<polyline fill="none" stroke="#000000" points="1323,-679.5 1778,-679.5 "/>
<text text-anchor="start" x="1331" y="-662.7" font-family="Times,serif" font-size="16.00" fill="#000000">admin_uid(int) </text>
<text text-anchor="end" x="1770" y="-644.7" font-family="Times,serif" font-size="16.00" fill="#000000"> 支付时该App绑定的管理员账号ID</text>
<polyline fill="none" stroke="#000000" points="1323,-635.5 1778,-635.5 "/>
<text text-anchor="start" x="1331" y="-618.7" font-family="Times,serif" font-size="16.00" fill="#000000">open_id(string) </text>
<text text-anchor="end" x="1770" y="-600.7" font-family="Times,serif" font-size="16.00" fill="#000000"> 进行支付的DragonEx用户在此App的OpenId</text>
<polyline fill="none" stroke="#000000" points="1323,-591.5 1778,-591.5 "/>
<text text-anchor="start" x="1331" y="-574.7" font-family="Times,serif" font-size="16.00" fill="#000000">coin_id(int) </text>
<text text-anchor="end" x="1770" y="-556.7" font-family="Times,serif" font-size="16.00" fill="#000000"> 支付币种ID</text>
<polyline fill="none" stroke="#000000" points="1323,-547.5 1778,-547.5 "/>
<text text-anchor="start" x="1331" y="-530.7" font-family="Times,serif" font-size="16.00" fill="#000000">total_volume(string) </text>
<text text-anchor="end" x="1770" y="-512.7" font-family="Times,serif" font-size="16.00" fill="#000000"> 支付数量</text>
<polyline fill="none" stroke="#000000" points="1323,-503.5 1778,-503.5 "/>
<text text-anchor="start" x="1331" y="-486.7" font-family="Times,serif" font-size="16.00" fill="#000000">cut_volume(string) </text>
<text text-anchor="end" x="1770" y="-468.7" font-family="Times,serif" font-size="16.00" fill="#000000"> 收取的佣金数量，total_volume&#45;cut_volume即为实际到账的数量</text>
<polyline fill="none" stroke="#000000" points="1323,-459.5 1778,-459.5 "/>
<text text-anchor="start" x="1331" y="-442.7" font-family="Times,serif" font-size="16.00" fill="#000000">direction(int) </text>
<text text-anchor="end" x="1770" y="-424.7" font-family="Times,serif" font-size="16.00" fill="#000000"> 转账方向</text>
<polyline fill="none" stroke="#000000" points="1323,-415.5 1778,-415.5 "/>
<text text-anchor="start" x="1331" y="-398.7" font-family="Times,serif" font-size="16.00" fill="#000000">status(int) </text>
<text text-anchor="end" x="1770" y="-380.7" font-family="Times,serif" font-size="16.00" fill="#000000"> 转账状态</text>
<polyline fill="none" stroke="#000000" points="1323,-371.5 1778,-371.5 "/>
<text text-anchor="start" x="1331" y="-354.7" font-family="Times,serif" font-size="16.00" fill="#000000">scene(string) </text>
<text text-anchor="end" x="1770" y="-336.7" font-family="Times,serif" font-size="16.00" fill="#000000"> 支付场景，由接入方在申请支付时传入</text>
<polyline fill="none" stroke="#000000" points="1323,-327.5 1778,-327.5 "/>
<text text-anchor="start" x="1331" y="-310.7" font-family="Times,serif" font-size="16.00" fill="#000000">desc(string) </text>
<text text-anchor="end" x="1770" y="-292.7" font-family="Times,serif" font-size="16.00" fill="#000000"> 支付描述，由接入方在申请支付时传入</text>
<polyline fill="none" stroke="#000000" points="1323,-283.5 1778,-283.5 "/>
<text text-anchor="start" x="1331" y="-266.7" font-family="Times,serif" font-size="16.00" fill="#000000">device(string) </text>
<text text-anchor="end" x="1770" y="-248.7" font-family="Times,serif" font-size="16.00" fill="#000000"> 支付设备信息，由接入方在申请支付时传入</text>
</g>
<!-- App&#45;&gt;TransLog -->
<g id="edge9" class="edge">
<title>App:app_id&#45;&gt;TransLog:app_id</title>
<path fill="none" stroke="#000000" d="M876,-728.5C908.9009,-728.5 892.3764,-772.1852 922,-786.5 1068.0628,-857.0811 1151.7611,-876.0906 1287,-786.5 1317.8621,-766.055 1288.9352,-713.2978 1313.1335,-703.1886"/>
<polygon fill="#000000" stroke="#000000" points="1313.7338,-706.6369 1323,-701.5 1312.5529,-699.7372 1313.7338,-706.6369"/>
</g>
<!-- Scopes2 -->
<g id="node4" class="node">
<title>Scopes2</title>
<polygon fill="none" stroke="#000000" points="1814,-469.5 1814,-891.5 1992,-891.5 1992,-469.5 1814,-469.5"/>
<text text-anchor="middle" x="1903" y="-874.7" font-family="Times,serif" font-size="16.00" fill="#000000">Scope</text>
<polyline fill="none" stroke="#000000" points="1814,-865.5 1992,-865.5 "/>
<text text-anchor="start" x="1822" y="-848.7" font-family="Times,serif" font-size="16.00" fill="#000000">1 </text>
<text text-anchor="end" x="1984" y="-830.7" font-family="Times,serif" font-size="16.00" fill="#000000"> 登录</text>
<polyline fill="none" stroke="#000000" points="1814,-821.5 1992,-821.5 "/>
<text text-anchor="start" x="1822" y="-804.7" font-family="Times,serif" font-size="16.00" fill="#000000">2 </text>
<text text-anchor="end" x="1984" y="-786.7" font-family="Times,serif" font-size="16.00" fill="#000000"> 暂不开放</text>
<polyline fill="none" stroke="#000000" points="1814,-777.5 1992,-777.5 "/>
<text text-anchor="start" x="1822" y="-760.7" font-family="Times,serif" font-size="16.00" fill="#000000">3 </text>
<text text-anchor="end" x="1984" y="-742.7" font-family="Times,serif" font-size="16.00" fill="#000000"> 提现</text>
<polyline fill="none" stroke="#000000" points="1814,-733.5 1992,-733.5 "/>
<text text-anchor="start" x="1822" y="-716.7" font-family="Times,serif" font-size="16.00" fill="#000000">4 </text>
<text text-anchor="end" x="1984" y="-698.7" font-family="Times,serif" font-size="16.00" fill="#000000"> 交易</text>
<polyline fill="none" stroke="#000000" points="1814,-689.5 1992,-689.5 "/>
<text text-anchor="start" x="1822" y="-672.7" font-family="Times,serif" font-size="16.00" fill="#000000">5 </text>
<text text-anchor="end" x="1984" y="-654.7" font-family="Times,serif" font-size="16.00" fill="#000000"> 支付，从用户向接入方</text>
<polyline fill="none" stroke="#000000" points="1814,-645.5 1992,-645.5 "/>
<text text-anchor="start" x="1822" y="-628.7" font-family="Times,serif" font-size="16.00" fill="#000000">6 </text>
<text text-anchor="end" x="1984" y="-610.7" font-family="Times,serif" font-size="16.00" fill="#000000"> 支付，从接入方向用户</text>
<polyline fill="none" stroke="#000000" points="1814,-601.5 1992,-601.5 "/>
<text text-anchor="start" x="1822" y="-584.7" font-family="Times,serif" font-size="16.00" fill="#000000">7 </text>
<text text-anchor="end" x="1984" y="-566.7" font-family="Times,serif" font-size="16.00" fill="#000000"> 获取用户资产信息</text>
<polyline fill="none" stroke="#000000" points="1814,-557.5 1992,-557.5 "/>
<text text-anchor="start" x="1822" y="-540.7" font-family="Times,serif" font-size="16.00" fill="#000000">8 </text>
<text text-anchor="end" x="1984" y="-522.7" font-family="Times,serif" font-size="16.00" fill="#000000"> 暂不开放</text>
<polyline fill="none" stroke="#000000" points="1814,-513.5 1992,-513.5 "/>
<text text-anchor="start" x="1822" y="-496.7" font-family="Times,serif" font-size="16.00" fill="#000000">9 </text>
<text text-anchor="end" x="1984" y="-478.7" font-family="Times,serif" font-size="16.00" fill="#000000"> 暂不开放</text>
</g>
<!-- OpenId&#45;&gt;AccessToken -->
<g id="edge7" class="edge">
<title>OpenId:open_id&#45;&gt;AccessToken:open_id</title>
<path fill="none" stroke="#000000" d="M1287,-684.5C1342.2561,-684.5 1303.3791,-751.8449 1323,-803.5 1357.7126,-894.8863 1320.0237,-1002.6268 1408.3351,-1010.0893"/>
<polygon fill="#000000" stroke="#000000" points="1408.3668,-1013.5934 1418.5,-1010.5 1408.6495,-1006.5991 1408.3668,-1013.5934"/>
</g>
<!-- OpenId&#45;&gt;TransLog -->
<g id="edge10" class="edge">
<title>OpenId:open_id&#45;&gt;TransLog:open_id</title>
<path fill="none" stroke="#000000" d="M1287,-684.5C1318.234,-684.5 1294.8036,-629.1656 1313.2256,-616.1966"/>
<polygon fill="#000000" stroke="#000000" points="1314.291,-619.5335 1323,-613.5 1312.4293,-612.7856 1314.291,-619.5335"/>
</g>
<!-- AccessToken&#45;&gt;Scopes2 -->
<g id="edge8" class="edge">
<title>AccessToken:scopes&#45;&gt;Scopes2:scopes</title>
<path fill="none" stroke="#000000" d="M1682.5,-878.5C1737.4058,-878.5 1753.6256,-878.5 1803.8467,-878.5"/>
<polygon fill="#000000" stroke="#000000" points="1804,-882.0001 1814,-878.5 1804,-875.0001 1804,-882.0001"/>
</g>
<!-- TransDirection -->
<g id="node10" class="node">
<title>TransDirection</title>
<polygon fill="none" stroke="#000000" points="1839.5,-336.5 1839.5,-450.5 1966.5,-450.5 1966.5,-336.5 1839.5,-336.5"/>
<text text-anchor="middle" x="1903" y="-433.7" font-family="Times,serif" font-size="16.00" fill="#000000">转账方向</text>
<polyline fill="none" stroke="#000000" points="1839.5,-424.5 1966.5,-424.5 "/>
<text text-anchor="start" x="1847.5" y="-407.7" font-family="Times,serif" font-size="16.00" fill="#000000">1</text>
<text text-anchor="end" x="1958.5" y="-389.7" font-family="Times,serif" font-size="16.00" fill="#000000">从用户向接入方</text>
<polyline fill="none" stroke="#000000" points="1839.5,-380.5 1966.5,-380.5 "/>
<text text-anchor="start" x="1847.5" y="-363.7" font-family="Times,serif" font-size="16.00" fill="#000000">2</text>
<text text-anchor="end" x="1958.5" y="-345.7" font-family="Times,serif" font-size="16.00" fill="#000000">从接入方向用户</text>
</g>
<!-- TransLog&#45;&gt;TransDirection -->
<g id="edge11" class="edge">
<title>TransLog:direction&#45;&gt;TransDirection:direction</title>
<path fill="none" stroke="#000000" d="M1778,-437.5C1801.4045,-437.5 1809.6555,-437.5 1828.9165,-437.5"/>
<polygon fill="#000000" stroke="#000000" points="1829,-441.0001 1839,-437.5 1829,-434.0001 1829,-441.0001"/>
</g>
<!-- TransStatus -->
<g id="node11" class="node">
<title>TransStatus</title>
<polygon fill="none" stroke="#000000" points="1847.5,-115.5 1847.5,-317.5 1958.5,-317.5 1958.5,-115.5 1847.5,-115.5"/>
<text text-anchor="middle" x="1903" y="-300.7" font-family="Times,serif" font-size="16.00" fill="#000000">转账状态</text>
<polyline fill="none" stroke="#000000" points="1847.5,-291.5 1958.5,-291.5 "/>
<text text-anchor="start" x="1855.5" y="-274.7" font-family="Times,serif" font-size="16.00" fill="#000000">&#45;1</text>
<text text-anchor="end" x="1950.5" y="-256.7" font-family="Times,serif" font-size="16.00" fill="#000000">用户取消支付</text>
<polyline fill="none" stroke="#000000" points="1847.5,-247.5 1958.5,-247.5 "/>
<text text-anchor="start" x="1855.5" y="-230.7" font-family="Times,serif" font-size="16.00" fill="#000000">1</text>
<text text-anchor="end" x="1950.5" y="-212.7" font-family="Times,serif" font-size="16.00" fill="#000000">支付成功</text>
<polyline fill="none" stroke="#000000" points="1847.5,-203.5 1958.5,-203.5 "/>
<text text-anchor="start" x="1855.5" y="-186.7" font-family="Times,serif" font-size="16.00" fill="#000000">2</text>
<text text-anchor="end" x="1950.5" y="-168.7" font-family="Times,serif" font-size="16.00" fill="#000000">支付失败</text>
<polyline fill="none" stroke="#000000" points="1847.5,-159.5 1958.5,-159.5 "/>
<text text-anchor="start" x="1855.5" y="-142.7" font-family="Times,serif" font-size="16.00" fill="#000000">3</text>
<text text-anchor="end" x="1950.5" y="-124.7" font-family="Times,serif" font-size="16.00" fill="#000000">支付转账中</text>
</g>
<!-- TransLog&#45;&gt;TransStatus -->
<g id="edge12" class="edge">
<title>TransLog:status&#45;&gt;TransStatus:status</title>
<path fill="none" stroke="#000000" d="M1778,-393.5C1811.4132,-393.5 1791.6996,-352.3825 1814,-327.5 1823.2284,-317.2031 1827.228,-309.0755 1836.8381,-305.9212"/>
<polygon fill="#000000" stroke="#000000" points="1837.5812,-309.3514 1847,-304.5 1836.6116,-302.4189 1837.5812,-309.3514"/>
</g>
</g>
</svg>
