<?xml version="1.0" encoding="UTF-8" standalone="no"?>
<!DOCTYPE svg PUBLIC "-//W3C//DTD SVG 1.1//EN"
 "http://www.w3.org/Graphics/SVG/1.1/DTD/svg11.dtd">
<!-- Generated by graphviz version 2.40.1 (20161225.0304)
 -->
<!-- Title: g Pages: 1 -->
<svg width="724pt" height="809pt"
 viewBox="0.00 0.00 724.00 809.00" xmlns="http://www.w3.org/2000/svg" xmlns:xlink="http://www.w3.org/1999/xlink">
<g id="graph0" class="graph" transform="scale(1 1) rotate(0) translate(4 805)">
<title>g</title>
<polygon fill="#ffffff" stroke="transparent" points="-4,4 -4,-805 720,-805 720,4 -4,4"/>
<!-- LoginApis -->
<g id="node1" class="node">
<title>LoginApis</title>
<polygon fill="none" stroke="#000000" points="0,-.5 0,-800.5 716,-800.5 716,-.5 0,-.5"/>
<text text-anchor="middle" x="358" y="-783.7" font-family="Times,serif" font-size="16.00" fill="#000000">支付相关接口或页面</text>
<polyline fill="none" stroke="#000000" points="0,-774.5 716,-774.5 "/>
<text text-anchor="middle" x="143.5" y="-744.7" font-family="Times,serif" font-size="16.00" fill="#000000">接入方需提供的接口或页面</text>
<polyline fill="none" stroke="#000000" points="287,-722.5 287,-774.5 "/>
<text text-anchor="start" x="295" y="-757.7" font-family="Times,serif" font-size="16.00" fill="#000000">用户支付成功（或失败）后跳转到的接入方地址</text>
<polyline fill="none" stroke="#000000" points="287,-748.5 716,-748.5 "/>
<text text-anchor="start" x="295" y="-731.7" font-family="Times,serif" font-size="16.00" fill="#000000">支付回调地址</text>
<polyline fill="none" stroke="#000000" points="0,-722.5 716,-722.5 "/>
<text text-anchor="middle" x="112.5" y="-696.7" font-family="Times,serif" font-size="16.00" fill="#000000">DragonEx前端支付页</text>
<polyline fill="none" stroke="#000000" points="225,-678.5 225,-722.5 "/>
<text text-anchor="start" x="233" y="-705.7" font-family="Times,serif" font-size="16.00" fill="#000000">接入方申请支付后，会随接口响应返回此订单的支付地址，</text>
<text text-anchor="start" x="233" y="-687.7" font-family="Times,serif" font-size="16.00" fill="#000000">接入方跳转到该地址即可 </text>
<polyline fill="none" stroke="#000000" points="0,-678.5 716,-678.5 "/>
<text text-anchor="middle" x="133.5" y="-586.7" font-family="Times,serif" font-size="16.00" fill="#000000">接入方客户端调用</text>
<polyline fill="none" stroke="#000000" points="267,-502.5 267,-678.5 "/>
<text text-anchor="middle" x="353.5" y="-630.7" font-family="Times,serif" font-size="16.00" fill="#000000">币币账户相关</text>
<polyline fill="none" stroke="#000000" points="440,-590.5 440,-678.5 "/>
<text text-anchor="start" x="448" y="-661.7" font-family="Times,serif" font-size="16.00" fill="#000000">/api/v1/user/coin/list/ </text>
<text text-anchor="end" x="708" y="-643.7" font-family="Times,serif" font-size="16.00" fill="#000000"> 查询用户币币账号资产列表 </text>
<polyline fill="none" stroke="#000000" points="440,-634.5 716,-634.5 "/>
<text text-anchor="start" x="448" y="-617.7" font-family="Times,serif" font-size="16.00" fill="#000000">/api/v1/user/coin/detail/ </text>
<text text-anchor="end" x="708" y="-599.7" font-family="Times,serif" font-size="16.00" fill="#000000"> 查询用户币币账号单项资产 </text>
<polyline fill="none" stroke="#000000" points="267,-590.5 716,-590.5 "/>
<text text-anchor="middle" x="353.5" y="-542.7" font-family="Times,serif" font-size="16.00" fill="#000000">开放账户相关</text>
<polyline fill="none" stroke="#000000" points="440,-502.5 440,-590.5 "/>
<text text-anchor="start" x="448" y="-573.7" font-family="Times,serif" font-size="16.00" fill="#000000">/api/v1/open/user/coin/list/ </text>
<text text-anchor="end" x="708" y="-555.7" font-family="Times,serif" font-size="16.00" fill="#000000"> 查询用户开放账号资产列表 </text>
<polyline fill="none" stroke="#000000" points="440,-546.5 716,-546.5 "/>
<text text-anchor="start" x="448" y="-529.7" font-family="Times,serif" font-size="16.00" fill="#000000">/api/v1/open/user/coin/detail/ </text>
<text text-anchor="end" x="708" y="-511.7" font-family="Times,serif" font-size="16.00" fill="#000000"> 查询用户开放账号单项资产 </text>
<polyline fill="none" stroke="#000000" points="0,-502.5 716,-502.5 "/>
<text text-anchor="middle" x="71.5" y="-247.7" font-family="Times,serif" font-size="16.00" fill="#000000">接入方服务端调用</text>
<polyline fill="none" stroke="#000000" points="143,-.5 143,-502.5 "/>
<text text-anchor="middle" x="253.5" y="-410.7" font-family="Times,serif" font-size="16.00" fill="#000000">币币账户相关</text>
<polyline fill="none" stroke="#000000" points="364,-326.5 364,-502.5 "/>
<text text-anchor="start" x="372" y="-485.7" font-family="Times,serif" font-size="16.00" fill="#000000">/api/v1/user/coin/list/ </text>
<text text-anchor="end" x="708" y="-467.7" font-family="Times,serif" font-size="16.00" fill="#000000"> 查询用户币币账号资产列表 </text>
<polyline fill="none" stroke="#000000" points="364,-458.5 716,-458.5 "/>
<text text-anchor="start" x="372" y="-441.7" font-family="Times,serif" font-size="16.00" fill="#000000">/api/v1/user/coin/detail/ </text>
<text text-anchor="end" x="708" y="-423.7" font-family="Times,serif" font-size="16.00" fill="#000000"> 查询用户币币账号单项资产 </text>
<polyline fill="none" stroke="#000000" points="364,-414.5 716,-414.5 "/>
<text text-anchor="start" x="372" y="-397.7" font-family="Times,serif" font-size="16.00" fill="#000000">/api/v1/pay/user2app/pre/ </text>
<text text-anchor="end" x="708" y="-379.7" font-family="Times,serif" font-size="16.00" fill="#000000"> 申请支付（用户向接入方支付）</text>
<polyline fill="none" stroke="#000000" points="364,-370.5 716,-370.5 "/>
<text text-anchor="start" x="372" y="-353.7" font-family="Times,serif" font-size="16.00" fill="#000000">/api/v1/pay/app2user/do/ </text>
<text text-anchor="end" x="708" y="-335.7" font-family="Times,serif" font-size="16.00" fill="#000000"> 从接入方转账给用户</text>
<polyline fill="none" stroke="#000000" points="143,-326.5 716,-326.5 "/>
<text text-anchor="middle" x="256.5" y="-234.7" font-family="Times,serif" font-size="16.00" fill="#000000">开放账户相关</text>
<polyline fill="none" stroke="#000000" points="370,-150.5 370,-326.5 "/>
<text text-anchor="start" x="378" y="-309.7" font-family="Times,serif" font-size="16.00" fill="#000000">/api/v1/open/user/coin/list/ </text>
<text text-anchor="end" x="708" y="-291.7" font-family="Times,serif" font-size="16.00" fill="#000000"> 查询用户开放账号资产列表 </text>
<polyline fill="none" stroke="#000000" points="370,-282.5 716,-282.5 "/>
<text text-anchor="start" x="378" y="-265.7" font-family="Times,serif" font-size="16.00" fill="#000000">/api/v1/open/user/coin/detail/ </text>
<text text-anchor="end" x="708" y="-247.7" font-family="Times,serif" font-size="16.00" fill="#000000"> 查询用户开放账号单项资产 </text>
<polyline fill="none" stroke="#000000" points="370,-238.5 716,-238.5 "/>
<text text-anchor="start" x="378" y="-221.7" font-family="Times,serif" font-size="16.00" fill="#000000">/api/v1/open/pay/user2app/do/ </text>
<text text-anchor="end" x="708" y="-203.7" font-family="Times,serif" font-size="16.00" fill="#000000"> 开放账户从用户向接入方支付 </text>
<polyline fill="none" stroke="#000000" points="370,-194.5 716,-194.5 "/>
<text text-anchor="start" x="378" y="-177.7" font-family="Times,serif" font-size="16.00" fill="#000000">/api/v1/open/pay/app2user/do/ </text>
<text text-anchor="end" x="708" y="-159.7" font-family="Times,serif" font-size="16.00" fill="#000000"> 开放账户从接入方向用户支付 </text>
<polyline fill="none" stroke="#000000" points="143,-150.5 716,-150.5 "/>
<text text-anchor="middle" x="183" y="-71.7" font-family="Times,serif" font-size="16.00" fill="#000000">订单相关</text>
<polyline fill="none" stroke="#000000" points="223,-.5 223,-150.5 "/>
<text text-anchor="start" x="231" y="-133.7" font-family="Times,serif" font-size="16.00" fill="#000000">/api/v1/pay/order/detail/ </text>
<text text-anchor="end" x="708" y="-115.7" font-family="Times,serif" font-size="16.00" fill="#000000"> 查询订单详情 </text>
<polyline fill="none" stroke="#000000" points="223,-106.5 716,-106.5 "/>
<text text-anchor="start" x="231" y="-89.7" font-family="Times,serif" font-size="16.00" fill="#000000">/api/v1/pay/order/history/ </text>
<text text-anchor="end" x="708" y="-71.7" font-family="Times,serif" font-size="16.00" fill="#000000"> 查询历史订单 </text>
<polyline fill="none" stroke="#000000" points="223,-62.5 716,-62.5 "/>
<text text-anchor="start" x="231" y="-45.7" font-family="Times,serif" font-size="16.00" fill="#000000">/api/v1/pay/callback/redo/ </text>
<text text-anchor="end" x="708" y="-27.7" font-family="Times,serif" font-size="16.00" fill="#000000"> 接入方主动要求某支付记录发起回调</text>
<text text-anchor="end" x="708" y="-9.7" font-family="Times,serif" font-size="16.00" fill="#000000">（不论支付是否成功，也不论之前是否已回调，均会再次发起回调） </text>
</g>
</g>
</svg>
